<?xml version="1.0" standalone="no"?>
<!DOCTYPE svg PUBLIC "-//W3C//DTD SVG 20010904//EN"
 "http://www.w3.org/TR/2001/REC-SVG-20010904/DTD/svg10.dtd">
<svg version="1.0" xmlns="http://www.w3.org/2000/svg"
 width="128.000000pt" height="128.000000pt" viewBox="0 0 128.000000 128.000000"
 preserveAspectRatio="xMidYMid meet">

<g transform="translate(0.000000,128.000000) scale(0.100000,-0.100000)"
fill="#555" stroke="none">
<path d="M65 1271 c-11 -5 -29 -19 -40 -31 -19 -21 -20 -38 -23 -534 -3 -561
-4 -558 56 -586 53 -25 347 -120 370 -120 33 0 78 28 91 57 6 13 11 41 11 63
l0 38 109 4 c121 3 144 13 189 78 20 30 22 44 22 176 0 142 0 144 -25 160 -23
15 -27 15 -50 0 -24 -16 -25 -19 -25 -139 0 -166 -1 -167 -126 -167 l-94 0 0
421 0 421 -29 29 -29 29 123 0 c155 0 155 0 155 -140 0 -104 7 -120 50 -120
45 0 50 15 50 141 0 127 -11 157 -73 203 -27 20 -41 21 -360 23 -183 1 -341
-2 -352 -6z"/>
<path d="M976 994 c-12 -12 -16 -37 -16 -105 l0 -89 -119 0 c-113 0 -121 -1
-135 -22 -21 -30 -20 -44 4 -68 18 -18 33 -20 135 -20 l115 0 0 -88 c0 -94 13
-122 55 -122 26 0 265 239 265 265 0 29 -238 265 -267 265 -12 0 -29 -7 -37
-16z"/>
</g>
</svg>
